<?xml version="1.0" standalone="no"?>
<!DOCTYPE svg PUBLIC "-//W3C//DTD SVG 20010904//EN"
 "http://www.w3.org/TR/2001/REC-SVG-20010904/DTD/svg10.dtd">
<svg version="1.0" xmlns="http://www.w3.org/2000/svg"
 width="512.000000pt" height="512.000000pt" viewBox="0 0 512.000000 512.000000"
 preserveAspectRatio="xMidYMid meet">
<metadata>
Created by potrace 1.14, written by Peter Selinger 2001-2017
</metadata>
<g transform="translate(0.000000,512.000000) scale(0.100000,-0.100000)"
fill="#000000" stroke="none">
<path d="M1178 3893 c-10 -2 -18 -9 -18 -14 0 -5 43 -9 95 -9 90 0 122 10 73
24 -26 6 -124 6 -150 -1z"/>
<path d="M1462 3893 c-32 -13 7 -23 89 -23 85 0 115 11 67 24 -27 7 -138 7
-156 -1z"/>
<path d="M3605 3869 c-104 -6 -186 -20 -230 -39 -11 -5 -37 -11 -57 -15 -21
-3 -38 -10 -38 -14 0 -5 -18 -11 -40 -15 -22 -3 -40 -11 -40 -16 0 -6 -7 -10
-15 -10 -20 0 -174 -81 -249 -131 -32 -21 -61 -39 -65 -39 -3 0 -19 -14 -35
-30 -16 -17 -35 -30 -41 -30 -7 0 -59 -45 -115 -100 -56 -55 -107 -100 -113
-100 -6 0 -30 19 -54 42 -23 23 -46 39 -50 35 -4 -4 12 -25 35 -48 23 -22 42
-42 42 -44 0 -2 12 -17 28 -33 64 -67 131 -141 182 -202 30 -36 57 -67 60 -70
3 -3 28 -34 55 -70 27 -36 52 -67 56 -70 14 -11 159 -211 159 -220 0 -6 3 -10
8 -10 4 0 18 -17 32 -37 30 -45 57 -73 69 -73 5 0 12 -10 16 -22 6 -20 8 -21
12 -5 3 11 -6 28 -22 43 -26 24 -26 24 -8 57 10 17 20 34 23 37 3 3 24 27 45
55 56 69 78 95 96 114 8 9 31 36 50 61 18 25 97 108 174 186 204 206 243 231
278 182 61 -84 77 -109 77 -122 0 -7 7 -19 15 -26 8 -7 15 -21 15 -31 0 -11 4
-19 9 -19 5 0 12 -13 16 -30 4 -16 10 -30 14 -30 9 0 28 -81 41 -169 5 -36 14
-69 20 -75 5 -5 10 -51 10 -101 0 -60 5 -99 15 -119 8 -15 15 -45 15 -65 0
-21 7 -46 15 -57 8 -10 15 -27 15 -37 0 -39 124 -177 158 -177 6 0 12 -7 16
-15 3 -8 16 -15 30 -15 13 0 26 -7 30 -15 3 -8 16 -15 29 -15 13 0 29 -6 35
-12 18 -18 214 -18 219 0 3 6 15 12 28 12 12 0 28 7 35 15 7 8 21 15 32 15 10
0 21 7 24 15 4 8 12 15 19 15 22 0 155 137 155 159 0 5 6 22 14 38 35 72 40
102 44 261 2 132 0 169 -13 194 -8 17 -15 45 -15 63 0 17 -7 40 -15 51 -8 10
-15 29 -15 41 0 19 -14 54 -42 103 -4 8 -11 22 -14 30 -24 58 -70 150 -76 150
-5 0 -8 7 -8 15 0 9 -7 18 -15 21 -8 4 -15 15 -15 25 0 11 -7 22 -15 25 -8 4
-15 12 -15 20 0 8 -4 14 -10 14 -5 0 -16 12 -24 28 -18 35 -114 130 -140 138
-10 4 -31 19 -45 34 -22 24 -125 92 -171 113 -8 4 -28 16 -45 27 -16 11 -37
22 -45 26 -8 3 -27 12 -42 20 -14 8 -34 14 -45 14 -10 0 -27 7 -37 15 -11 8
-32 15 -47 15 -15 0 -30 4 -34 9 -3 6 -27 13 -53 17 -26 3 -51 10 -57 14 -14
11 -210 16 -340 9z"/>
<path d="M1055 3860 c-3 -5 0 -13 9 -16 21 -8 71 -1 71 11 0 14 -72 19 -80 5z"/>
<path d="M1667 3864 c-13 -14 6 -24 43 -24 41 0 61 14 34 24 -21 8 -69 8 -77
0z"/>
<path d="M975 3831 c-7 -13 17 -24 40 -19 9 1 16 8 16 13 0 14 -48 19 -56 6z"/>
<path d="M1775 3830 c-3 -5 0 -13 9 -16 21 -8 61 -1 61 11 0 14 -62 19 -70 5z"/>
<path d="M915 3801 c-3 -5 -1 -12 5 -16 14 -9 52 4 45 16 -8 12 -42 12 -50 0z"/>
<path d="M1860 3801 c0 -13 37 -24 50 -16 6 4 8 11 5 16 -8 12 -55 12 -55 0z"/>
<path d="M850 3771 c0 -11 26 -22 34 -14 12 12 5 23 -14 23 -11 0 -20 -4 -20
-9z"/>
<path d="M1936 3771 c-7 -11 22 -23 35 -15 5 3 7 10 4 15 -8 12 -32 12 -39 0z"/>
<path d="M800 3740 c0 -5 7 -10 15 -10 8 0 15 5 15 10 0 6 -7 10 -15 10 -8 0
-15 -4 -15 -10z"/>
<path d="M1990 3740 c0 -5 9 -10 20 -10 11 0 20 5 20 10 0 6 -9 10 -20 10 -11
0 -20 -4 -20 -10z"/>
<path d="M737 3706 c-15 -12 -27 -25 -27 -29 0 -14 31 -7 36 8 4 8 12 15 19
15 19 0 28 17 12 23 -7 2 -25 -5 -40 -17z"/>
<path d="M2040 3710 c0 -5 9 -10 20 -10 11 0 20 5 20 10 0 6 -9 10 -20 10 -11
0 -20 -4 -20 -10z"/>
<path d="M2090 3686 c0 -9 7 -16 16 -16 9 0 14 5 12 12 -6 18 -28 21 -28 4z"/>
<path d="M636 3630 c-21 -22 -32 -40 -26 -40 7 0 22 10 34 23 12 13 30 26 39
30 10 4 15 11 12 17 -10 16 -18 12 -59 -30z"/>
<path d="M2135 3660 c-3 -6 2 -13 12 -17 10 -3 22 -12 26 -20 11 -18 27 -17
27 2 0 8 -7 15 -15 15 -8 0 -15 7 -15 15 0 17 -25 20 -35 5z"/>
<path d="M2210 3600 c0 -5 10 -10 23 -10 18 0 19 2 7 10 -19 13 -30 13 -30 0z"/>
<path d="M550 3570 c0 -5 9 -10 20 -10 11 0 20 5 20 10 0 6 -9 10 -20 10 -11
0 -20 -4 -20 -10z"/>
<path d="M2260 3575 c0 -6 69 -75 75 -75 13 0 2 22 -26 49 -27 28 -49 39 -49
26z"/>
<path d="M458 3480 c-71 -72 -95 -110 -68 -110 6 0 10 9 10 20 0 11 7 20 15
20 8 0 15 7 15 15 0 8 7 15 15 15 8 0 15 7 15 15 0 8 7 15 15 15 8 0 15 7 15
15 0 8 7 15 15 15 8 0 15 7 15 15 0 8 7 15 15 15 16 0 21 15 8 23 -5 3 -43
-30 -85 -73z"/>
<path d="M2390 3456 c0 -2 7 -6 15 -10 8 -3 15 -1 15 4 0 6 -7 10 -15 10 -8 0
-15 -2 -15 -4z"/>
<path d="M660 3425 c-7 -8 -29 -15 -50 -15 -21 0 -43 -7 -50 -15 -7 -8 -23
-15 -37 -15 -13 0 -26 -7 -29 -15 -4 -8 -15 -15 -26 -15 -11 0 -26 -7 -34 -15
-9 -8 -24 -15 -35 -15 -10 0 -19 -4 -19 -10 0 -5 -7 -10 -15 -10 -8 0 -15 7
-15 15 0 8 5 15 10 15 6 0 10 8 10 17 0 13 -7 9 -29 -15 -17 -17 -34 -32 -39
-32 -11 0 -22 -46 -14 -55 13 -13 55 -3 80 20 15 14 35 25 45 25 10 0 20 7 23
15 4 8 16 15 28 15 11 0 30 7 40 15 11 8 30 15 42 15 12 0 27 7 34 15 7 8 27
15 44 15 18 0 37 5 44 12 19 19 333 20 368 2 14 -8 41 -14 59 -14 18 0 38 -7
45 -15 7 -8 23 -15 35 -15 13 0 25 -7 29 -15 3 -8 17 -15 31 -15 14 0 25 -4
25 -10 0 -5 11 -12 25 -16 14 -3 25 -10 25 -14 0 -5 10 -12 22 -16 23 -7 33
-14 79 -56 16 -16 33 -28 37 -29 4 0 32 -27 62 -60 30 -33 101 -108 158 -166
56 -59 102 -112 102 -118 0 -7 24 -37 53 -67 52 -56 71 -81 84 -108 4 -8 20
-27 37 -42 28 -26 29 -28 13 -52 -10 -14 -17 -32 -17 -39 0 -8 -10 -25 -23
-39 -12 -13 -41 -47 -62 -74 -22 -27 -44 -54 -50 -60 -5 -6 -28 -33 -50 -59
-88 -106 -278 -305 -291 -305 -3 0 -19 -13 -37 -30 -45 -42 -96 -65 -116 -53
-22 14 -101 131 -101 149 0 8 -5 14 -11 14 -5 0 -15 13 -20 30 -6 17 -15 30
-20 30 -5 0 -9 11 -9 24 0 13 -7 29 -15 36 -8 7 -15 27 -15 45 0 19 -5 35 -11
37 -6 2 -13 26 -16 53 -2 28 -8 55 -13 60 -4 6 -10 45 -14 88 -3 43 -10 86
-16 97 -5 10 -10 40 -10 67 0 26 -7 61 -15 77 -8 15 -15 41 -15 56 0 15 -7 33
-15 40 -8 7 -15 20 -15 30 0 29 -124 149 -188 181 -31 16 -65 29 -74 29 -9 0
-20 5 -23 10 -10 16 -159 12 -191 -5 -16 -8 -39 -15 -51 -15 -15 0 -23 -6 -23
-16 0 -11 -6 -15 -20 -11 -10 3 -24 -1 -31 -9 -6 -7 -20 -16 -32 -20 -28 -9
-117 -97 -117 -117 0 -8 -7 -17 -15 -21 -8 -3 -15 -13 -15 -21 0 -9 -7 -23
-15 -31 -8 -9 -15 -25 -15 -38 0 -12 -6 -28 -12 -35 -18 -17 -18 -395 -1 -413
7 -6 13 -27 13 -44 0 -18 7 -39 15 -48 8 -8 15 -28 15 -44 0 -16 7 -35 15 -42
8 -7 15 -23 15 -37 0 -13 7 -26 15 -29 8 -4 15 -14 15 -24 0 -33 113 -230 131
-230 5 0 9 -8 9 -18 0 -19 152 -182 170 -182 6 0 10 -4 10 -10 0 -5 7 -10 15
-10 8 0 28 -13 44 -29 16 -16 45 -37 63 -48 18 -10 37 -24 41 -31 4 -6 19 -12
31 -12 13 0 26 -7 30 -15 3 -8 12 -15 19 -15 8 0 20 -7 27 -15 7 -8 23 -15 36
-15 13 0 24 -4 24 -10 0 -5 12 -13 27 -16 15 -4 38 -13 52 -20 14 -8 36 -14
48 -14 12 0 25 -5 28 -10 3 -5 17 -10 31 -10 14 0 39 -8 57 -17 27 -14 67 -16
269 -17 156 0 241 4 250 11 7 6 34 14 61 18 26 4 50 11 53 16 3 5 15 9 28 9
12 0 31 7 42 15 10 8 27 15 37 15 17 0 50 14 97 41 8 5 22 12 30 15 8 3 22 10
30 15 8 5 21 11 28 14 6 3 18 7 25 10 6 3 28 15 47 28 20 12 59 37 88 55 28
19 52 37 52 42 0 4 8 10 18 14 29 9 50 27 150 124 53 50 100 92 104 92 4 0 20
-14 35 -31 16 -18 57 -55 93 -84 36 -29 76 -63 90 -77 14 -14 43 -37 66 -51
22 -14 47 -32 55 -39 8 -8 30 -23 49 -34 19 -10 39 -25 43 -31 4 -7 17 -13 28
-13 11 0 22 -7 25 -15 4 -8 10 -15 16 -15 5 0 16 -7 24 -15 9 -8 24 -15 35
-15 10 0 19 -4 19 -8 0 -5 19 -16 43 -26 23 -9 56 -23 72 -30 48 -21 115 -37
185 -45 36 -4 78 -13 93 -19 44 -18 338 -16 384 3 19 8 56 15 82 15 25 0 55 7
65 15 11 8 30 15 42 15 12 0 35 7 50 15 16 8 37 15 47 15 9 0 17 5 17 10 0 6
11 10 24 10 13 0 29 7 36 15 7 8 21 15 32 15 10 0 21 7 24 15 4 8 12 15 20 15
8 0 33 13 56 30 22 16 47 30 55 30 7 0 13 4 13 9 0 4 26 27 57 49 69 49 143
117 143 132 0 5 7 10 15 10 8 0 15 5 15 10 0 6 11 21 25 34 14 13 25 28 25 34
0 6 14 24 30 40 30 31 38 52 20 52 -14 0 -43 -28 -66 -65 -37 -59 -156 -181
-186 -191 -10 -3 -18 -10 -18 -15 0 -5 -6 -9 -12 -9 -7 -1 -24 -14 -38 -30
-13 -17 -29 -30 -36 -30 -6 0 -39 -18 -72 -40 -33 -22 -66 -40 -75 -40 -8 0
-20 -7 -27 -15 -7 -8 -23 -15 -35 -15 -12 0 -28 -7 -35 -15 -7 -8 -24 -15 -39
-15 -14 0 -35 -7 -45 -15 -11 -8 -32 -15 -47 -15 -14 0 -43 -7 -62 -15 -22 -9
-68 -15 -115 -15 -43 0 -83 -5 -89 -11 -16 -16 -391 12 -403 30 -3 5 -30 11
-60 13 -30 3 -56 11 -58 17 -2 6 -16 11 -32 11 -15 0 -33 7 -40 15 -7 8 -20
15 -30 15 -10 0 -23 7 -30 15 -7 8 -19 15 -26 15 -8 0 -43 18 -79 40 -36 22
-69 40 -74 40 -5 0 -11 7 -15 15 -3 8 -10 15 -17 15 -10 0 -76 47 -107 77 -7
7 -17 13 -21 13 -4 0 -26 18 -50 40 -23 22 -45 40 -48 40 -7 0 -174 171 -218
224 -22 27 -52 63 -67 80 -15 17 -28 34 -28 38 0 4 -8 15 -18 25 -10 10 -38
45 -62 78 -24 33 -49 65 -55 70 -6 6 -43 53 -82 105 -39 52 -82 108 -94 124
-65 80 -102 124 -129 154 -17 18 -30 35 -30 38 0 8 -51 76 -85 111 -43 46 -55
61 -55 70 0 5 -8 16 -17 25 -10 9 -61 62 -113 118 -156 167 -242 250 -260 250
-5 0 -10 7 -10 15 0 8 -7 15 -15 15 -8 0 -15 5 -15 10 0 6 -6 10 -13 10 -8 0
-24 9 -37 20 -13 11 -29 20 -37 20 -7 0 -13 5 -13 10 0 6 -9 10 -19 10 -11 0
-26 7 -35 15 -8 8 -23 15 -34 15 -11 0 -25 7 -32 15 -7 8 -27 15 -44 15 -17 0
-40 7 -50 15 -29 22 -378 22 -396 0z m-310 -140 c0 -8 -7 -15 -15 -15 -8 0
-15 7 -15 15 0 8 7 15 15 15 8 0 15 -7 15 -15z m335 -265 c-3 -5 -42 -10 -86
-10 -46 0 -79 4 -79 10 0 6 35 10 86 10 54 0 83 -4 79 -10z m-180 -25 c0 -5
-14 -11 -32 -13 -17 -2 -37 -10 -43 -18 -7 -8 -19 -14 -27 -14 -17 0 -133
-111 -133 -128 0 -6 -6 -15 -14 -19 -8 -4 -16 -21 -18 -37 -5 -44 -28 -46 -28
-2 0 25 4 36 15 36 9 0 15 9 15 25 0 14 5 25 10 25 6 0 10 6 10 13 0 18 75 87
95 87 9 0 18 7 21 15 4 8 16 15 29 15 13 0 26 7 29 16 7 17 71 17 71 -1z m261
0 c4 -8 16 -15 29 -15 13 0 25 -7 29 -15 3 -8 10 -15 16 -15 21 0 100 -91 100
-116 0 -31 -16 -31 -24 0 -7 26 -88 103 -123 117 -13 5 -23 13 -23 19 0 5 -11
10 -24 10 -33 0 -57 10 -50 21 9 15 64 10 70 -6z m204 -230 c0 -19 -4 -35 -10
-35 -5 0 -10 16 -10 35 0 19 5 35 10 35 6 0 10 -16 10 -35z m-761 -228 c-2
-174 -6 -228 -18 -208 -8 13 -13 370 -5 383 18 29 25 -20 23 -175z m791 108
c0 -13 -4 -27 -10 -30 -6 -4 -10 8 -10 30 0 22 4 34 10 30 6 -3 10 -17 10 -30z
m17 -212 c-2 -16 -4 -5 -4 22 0 28 2 40 4 28 2 -13 2 -35 0 -50z m30 -125 c-3
-7 -5 -2 -5 12 0 14 2 19 5 13 2 -7 2 -19 0 -25z m-817 -58 c0 -16 -4 -30 -10
-30 -11 0 -14 43 -3 53 11 12 13 8 13 -23z m847 -32 c-3 -8 -6 -5 -6 6 -1 11
2 17 5 13 3 -3 4 -12 1 -19z m-817 -53 c0 -14 -4 -25 -10 -25 -5 0 -10 11 -10
25 0 14 5 25 10 25 6 0 10 -11 10 -25z m22 -87 c-9 -9 -12 -7 -12 12 0 19 3
21 12 12 9 -9 9 -15 0 -24z m38 -47 c0 -6 -4 -13 -10 -16 -5 -3 -10 1 -10 9 0
9 5 16 10 16 6 0 10 -4 10 -9z"/>
<path d="M2432 3431 c2 -7 7 -12 11 -12 12 1 9 15 -3 20 -7 2 -11 -2 -8 -8z"/>
<path d="M2454 2850 c-107 -50 -164 -186 -117 -281 25 -52 96 -119 124 -118
23 1 23 1 -3 12 -16 6 -28 17 -28 24 0 7 -6 13 -12 13 -7 0 -22 18 -32 40 -15
31 -18 53 -13 106 5 63 7 68 51 110 46 43 48 44 117 44 75 0 106 -13 144 -60
38 -46 47 -89 33 -150 -7 -30 -18 -61 -25 -68 -7 -7 -18 -21 -25 -30 -7 -10
-24 -23 -38 -29 -19 -9 -21 -12 -7 -12 19 -1 61 23 88 51 52 51 71 179 37 243
-57 107 -189 154 -294 105z"/>
<path d="M3230 2465 c0 -8 5 -15 10 -15 6 0 10 -6 10 -13 0 -14 35 -47 49 -47
6 0 13 -9 16 -21 5 -16 10 -18 18 -9 9 8 8 15 -5 24 -10 7 -18 17 -18 22 0 5
-14 18 -30 29 -16 11 -30 26 -30 33 0 6 -4 12 -10 12 -5 0 -10 -7 -10 -15z"/>
<path d="M3340 2341 c0 -6 5 -13 10 -16 6 -3 10 1 10 9 0 9 -4 16 -10 16 -5 0
-10 -4 -10 -9z"/>
<path d="M3370 2290 c0 -5 5 -10 10 -10 6 0 10 5 10 10 0 6 -4 10 -10 10 -5 0
-10 -4 -10 -10z"/>
<path d="M3400 2263 c0 -12 88 -103 100 -103 5 0 10 -7 10 -15 0 -8 7 -15 15
-15 8 0 15 -7 15 -15 0 -8 7 -15 15 -15 8 0 15 -4 15 -9 0 -11 88 -101 99
-101 5 0 11 -7 15 -15 6 -17 26 -20 26 -5 0 13 -288 300 -301 300 -5 0 -9 -3
-9 -7z"/>
<path d="M3725 1951 c-3 -5 3 -12 14 -16 11 -3 22 -12 25 -20 3 -8 12 -15 21
-15 8 0 15 -4 15 -10 0 -5 11 -10 25 -10 16 0 25 -6 25 -15 0 -8 9 -15 20 -15
11 0 20 3 20 8 0 8 -57 42 -71 42 -5 0 -23 14 -39 30 -30 31 -45 37 -55 21z"/>
<path d="M4820 1940 c0 -21 8 -24 34 -14 25 10 19 34 -9 34 -18 0 -25 -5 -25
-20z"/>
<path d="M4831 1894 c0 -11 3 -14 6 -6 3 7 2 16 -1 19 -3 4 -6 -2 -5 -13z"/>
<path d="M4732 1889 c2 -6 8 -10 13 -10 5 0 11 4 13 10 2 6 -4 11 -13 11 -9 0
-15 -5 -13 -11z"/>
<path d="M4680 1864 c-10 -12 -8 -14 14 -14 28 0 35 14 12 23 -8 3 -20 -1 -26
-9z"/>
<path d="M3907 1844 c-11 -12 3 -24 29 -24 27 0 32 15 8 24 -20 8 -29 8 -37 0z"/>
<path d="M4617 1844 c-14 -14 -6 -24 19 -24 16 0 24 5 22 13 -5 14 -31 21 -41
11z"/>
<path d="M3965 1811 c-7 -13 17 -24 40 -19 9 1 16 8 16 13 0 14 -48 19 -56 6z"/>
<path d="M4547 1814 c-4 -4 -7 -11 -7 -16 0 -13 50 -6 53 7 2 12 -36 19 -46 9z"/>
<path d="M4036 1782 c-8 -13 18 -22 66 -22 27 0 38 4 36 13 -5 14 -94 22 -102
9z"/>
<path d="M4417 1784 c-13 -14 6 -24 43 -24 46 0 72 9 64 21 -6 10 -97 12 -107
3z"/>
<path d="M4160 1751 c0 -5 7 -12 16 -15 20 -8 188 -8 208 0 41 16 6 24 -104
24 -66 0 -120 -4 -120 -9z"/>
<path d="M2840 1696 c0 -9 5 -16 10 -16 6 0 10 4 10 9 0 6 -4 13 -10 16 -5 3
-10 -1 -10 -9z"/>
<path d="M2870 1670 c0 -6 7 -10 15 -10 8 0 15 2 15 4 0 2 -7 6 -15 10 -8 3
-15 1 -15 -4z"/>
<path d="M2915 1640 c-3 -5 1 -10 10 -10 8 0 18 -7 21 -15 4 -8 12 -15 20 -15
8 0 14 -7 14 -15 0 -9 9 -15 25 -15 16 0 25 -6 25 -15 0 -8 8 -15 19 -15 10 0
24 -7 31 -15 7 -8 19 -15 26 -15 8 0 14 -4 14 -10 0 -5 11 -12 25 -16 14 -3
25 -10 25 -14 0 -5 14 -11 30 -15 17 -4 30 -11 30 -16 0 -5 13 -9 28 -9 16 0
37 -7 48 -15 10 -8 40 -15 65 -15 29 0 51 -6 59 -15 9 -11 33 -15 91 -15 44 0
79 4 79 8 0 13 -23 32 -38 32 -8 0 -29 7 -48 15 -19 8 -49 22 -68 30 -19 8
-43 15 -54 15 -12 0 -24 5 -27 10 -3 6 -19 10 -34 10 -15 0 -36 7 -47 15 -10
8 -31 15 -45 15 -15 0 -32 7 -39 15 -7 8 -27 15 -45 15 -18 0 -38 7 -45 15 -7
8 -20 15 -30 15 -10 0 -23 7 -30 15 -7 8 -24 15 -39 15 -14 0 -37 9 -51 20
-29 22 -36 24 -45 10z"/>
</g>
</svg>
